<svg width="37" height="37" viewBox="0 0 37 37" fill="none" xmlns="http://www.w3.org/2000/svg">
<path fill-rule="evenodd" clip-rule="evenodd" d="M8.13146 15.6112C7.70834 16.5312 7.70834 17.5778 7.70834 19.671V26.2082C7.70834 29.1152 7.70834 30.5687 8.61142 31.4718C9.49046 32.3509 10.891 32.3743 13.6458 32.3749V24.6667C13.6458 23.2629 14.7838 22.125 16.1875 22.125H20.8125C22.2162 22.125 23.3542 23.2629 23.3542 24.6667V32.3749C26.109 32.3743 27.5095 32.3509 28.3886 31.4718C29.2917 30.5687 29.2917 29.1152 29.2917 26.2082V19.671C29.2917 17.5778 29.2917 16.5312 28.8685 15.6112C28.4454 14.6912 27.6508 14.0101 26.0615 12.6478L24.5198 11.3264C21.6472 8.86418 20.2109 7.63306 18.5 7.63306C16.7891 7.63306 15.3528 8.86418 12.4802 11.3264L10.9385 12.6478C9.34923 14.0101 8.55459 14.6912 8.13146 15.6112ZM21.3542 32.3749V24.6667C21.3542 24.3675 21.1117 24.125 20.8125 24.125H16.1875C15.8883 24.125 15.6458 24.3675 15.6458 24.6667V32.3749H21.3542Z" fill="#E9E9E9"/>
</svg>
